<svg xmlns="http://www.w3.org/2000/svg" width="100" height="100" viewBox="0 0 100 100"><g><g><path fill="#f4c800" d="M50 100C22.386 100 0 77.614 0 50S22.386 0 50 0s50 22.386 50 50-22.386 50-50 50zm0-98C23.49 2 2 23.49 2 50s21.49 48 48 48 48-21.49 48-48S76.51 2 50 2zm27.733 70.687a3.679 3.679 0 0 1-2.453 3.467l-16.395 5.781a.983.983 0 0 1-.352.064h-16a1.265 1.265 0 0 1-.341-.053l-12.63-4.213h-3.029v1.066c.002.525-.378.972-.896 1.056l-6.4 1.067a.918.918 0 0 1-.17.01c-.59 0-1.067-.477-1.067-1.066V58.533c.001-.312.138-.607.373-.811.24-.2.555-.29.864-.245l6.4 1.066c.518.084.898.532.896 1.056v1.622l3.872-1.547a.996.996 0 0 1 .395-.075h6.4c.071.002.143.01.213.022l16 3.2c.206.041.395.141.544.288l2.134 2.133c.196.204.307.475.309.757v3.2c0 .59-.478 1.067-1.067 1.067H44.517l5.76 3.2h8.107l14.635-4.31a3.642 3.642 0 0 1 3.242.587 3.639 3.639 0 0 1 1.472 2.944zM24.4 60.507l-4.267-.716v18.817l4.267-.715zm50.893 13.102c.51-.682.37-1.649-.312-2.159a1.507 1.507 0 0 0-1.354-.245l-14.795 4.352a.915.915 0 0 1-.299.042H50a1.011 1.011 0 0 1-.523-.138l-9.6-5.334a1.067 1.067 0 0 1 .523-1.994h13.867v-1.696l-1.59-1.59-15.584-3.114h-6.09l-4.47 1.792v12.074h3.2c.116.002.23.02.342.054l12.629 4.213h15.648l16.224-5.728c.286-.102.535-.286.717-.529zm-42.36-37.476v-12.8c0-.484.325-.906.792-1.03l16-4.268c.18-.048.37-.048.55 0l16 4.267c.467.125.791.547.792 1.03v12.8c0 12.351-7.657 22.4-17.067 22.4s-17.067-10.049-17.067-22.4zm2.134 0c0 11.175 6.698 20.266 14.933 20.266s14.933-9.09 14.933-20.266v-11.98L50 20.17l-14.933 3.983zm7.466 6.4a2.133 2.133 0 0 1-2.133-2.134v-4.266c0-1.179.955-2.134 2.133-2.134h3.2v-3.2c0-1.178.955-2.133 2.134-2.133h4.266c1.178 0 2.134.955 2.134 2.133V34h3.2c1.178 0 2.133.955 2.133 2.134v4.266a2.133 2.133 0 0 1-2.133 2.134h-3.2v3.2a2.133 2.133 0 0 1-2.134 2.133h-4.266a2.133 2.133 0 0 1-2.134-2.133v-3.2zm0-2.134h3.2c1.179 0 2.134.955 2.134 2.134v3.2h4.266v-3.2c0-1.179.955-2.134 2.134-2.134h3.2v-4.266h-3.2a2.133 2.133 0 0 1-2.134-2.134v-3.2h-4.266V34a2.133 2.133 0 0 1-2.134 2.134h-3.2zm28.8-18.133H69.2v-2.134h2.133V18h2.134v2.133H75.6v2.134h-2.133v2.133h-2.134zM82 28.666h-2.133v2.133h-2.134v-2.133H75.6v-2.134h2.133V24.4h2.134v2.133H82zm-12.8 22.4V53.2h2.133v2.134H69.2v2.133h-2.133v-2.133h-2.134v-2.134h2.134v-2.133zm6.4-4.267h2.133v2.134H75.6v2.133h-2.133v-2.133h-2.134v-2.134h2.134v-2.133H75.6zM26.533 22.266H24.4v-2.134h2.133V18h2.134v2.133H30.8v2.134h-2.133v2.133h-2.134zm-6.4 6.4H18v-2.134h2.133V24.4h2.134v2.133H24.4v2.134h-2.133v2.133h-2.134zm12.8 22.4V53.2h2.134v2.134h-2.134v2.133H30.8v-2.133h-2.133v-2.134H30.8v-2.133zm-8.533 0v-2.133h-2.133v-2.134H24.4v-2.133h2.133v2.133h2.134v2.134h-2.134v2.133z"/></g></g></svg>