<svg xmlns="http://www.w3.org/2000/svg" width="100" height="100" viewBox="0 0 100 100"><g><g><path fill="#f4c800" d="M50 100C22.386 100 0 77.614 0 50S22.386 0 50 0s50 22.386 50 50-22.386 50-50 50zm0-98C23.49 2 2 23.49 2 50s21.49 48 48 48 48-21.49 48-48S76.51 2 50 2zM32.932 39.744h2.134v2.122h-2.134zm10.667 0h2.134v2.122h-2.134zM82 52.476v6.366c0 .527-.389.973-.913 1.049l-4.168.592c-.198.58-.432 1.146-.7 1.697l2.521 3.345a1.057 1.057 0 0 1-.1 1.386l-4.525 4.502c-.375.373-.97.415-1.394.099l-3.362-2.509c-.554.268-1.124.5-1.707.697l-.595 4.145c-.076.523-.526.91-1.056.91h-5.334v3.184c0 .585-.477 1.06-1.066 1.06H19.065A1.064 1.064 0 0 1 18 77.94v-9.792c-.016-4.777 2.91-9.076 7.376-10.836l8.624-3.431v-1.631a11.7 11.7 0 0 1-6.198-8.276c-.068.005-.134.015-.202.015h-2.134a3.192 3.192 0 0 1-3.2-3.182v-3.183a3.184 3.184 0 0 1 2.134-2.988v-1.256c0-8.203 6.686-14.854 14.933-14.854 8.248 0 14.934 6.65 14.934 14.854v1.256a3.184 3.184 0 0 1 2.133 2.988v3.183a3.184 3.184 0 0 1-2.133 2.987v2.317a3.191 3.191 0 0 1-3.2 3.183h-2.69a11.814 11.814 0 0 1-3.71 2.956v1.63l8.624 3.432c.026.01.05.022.076.033a9.615 9.615 0 0 1 .224-4.5c1.508-5.123 6.906-8.06 12.057-6.56 5.15 1.5 8.103 6.869 6.595 11.992-1.507 5.123-6.905 8.06-12.056 6.56.318 1.075.48 2.19.48 3.311v4.487h4.409l.556-3.896c.059-.412.355-.751.757-.868.889-.255 1.747-.606 2.56-1.047.367-.2.818-.168 1.153.082l3.156 2.364 3.217-3.2-2.368-3.142a1.056 1.056 0 0 1-.082-1.147c.443-.808.796-1.662 1.053-2.546.117-.4.458-.694.873-.753l3.914-.556v-4.526l-3.914-.556a1.065 1.065 0 0 1-.873-.753 12.634 12.634 0 0 0-1.053-2.547 1.056 1.056 0 0 1 .082-1.147l2.374-3.141-3.217-3.2-3.159 2.356c-.335.25-.786.281-1.153.081a12.769 12.769 0 0 0-2.56-1.047 1.063 1.063 0 0 1-.757-.868l-.56-3.893h-4.55l-.559 3.893-2.112-.3.69-4.805c.076-.523.526-.91 1.056-.91h3.2V29.39a8.47 8.47 0 0 1-3.2-6.622 8.396 8.396 0 0 1 4.878-7.66 1.07 1.07 0 0 1 1.523.955v5.942l2.133.707 2.133-.707v-5.942a1.069 1.069 0 0 1 1.522-.959 8.396 8.396 0 0 1 4.878 7.664 8.47 8.47 0 0 1-3.2 6.622v10.213c.244.022.473.128.647.3l4.526 4.501c.375.373.417.965.099 1.387l-2.522 3.344c.269.551.503 1.118.701 1.698l4.168.592c.525.074.915.522.915 1.05zM71.334 40.84V28.86a1.06 1.06 0 0 1 .458-.869 6.342 6.342 0 0 0 .61-9.973v4.751c-.001.457-.295.863-.73 1.007l-3.201 1.061a1.069 1.069 0 0 1-.674 0l-3.2-1.06a1.062 1.062 0 0 1-.73-1.008v-4.75a6.344 6.344 0 0 0 .609 9.97c.287.197.458.523.458.87v7.703H66c.53 0 .98.387 1.056.91l.01.076v-8.413h2.128V42.25c.05.024.107.04.157.064zm-15.23 18.07a11.61 11.61 0 0 1 2.785 3.052 7.553 7.553 0 0 0 4.018 1.124c4.153-.03 7.496-3.402 7.467-7.533-.03-4.13-3.42-7.455-7.573-7.426-4.153.029-7.496 3.401-7.467 7.532a7.221 7.221 0 0 0 .77 3.25zm-3.97-12.8v-2.122h-1.067c-.068 0-.134-.015-.202-.015a11.517 11.517 0 0 1-1.093 3.198h1.295c.59 0 1.067-.475 1.067-1.06zm-3.2-11.67c0-5.274-4.299-9.549-9.6-9.549-5.303 0-9.6 4.275-9.6 9.549v1.06h6.293a5.37 5.37 0 0 0 3.327-1.166l3.58-2.845a1.067 1.067 0 0 1 1.52.192l1.92 2.547c.605.8 1.553 1.27 2.56 1.273zm5.333 3.183c0-.586-.478-1.061-1.067-1.061h-2.133v5.304h2.133c.59 0 1.067-.475 1.067-1.06zm-27.734-4.244v1.06H27.6c0-6.445 5.253-11.67 11.733-11.67s11.734 5.225 11.734 11.67h1.067v-1.06c-.008-7.028-5.734-12.724-12.8-12.732-7.067.008-12.793 5.704-12.8 12.732zm1.067 8.487v-5.304h-2.134c-.589 0-1.066.475-1.066 1.06v3.184c0 .585.477 1.06 1.066 1.06zm4.266 6.007c3.33 4.097 9.369 4.732 13.488 1.42h-6.02v-2.122h7.976a9.456 9.456 0 0 0 1.624-5.305v-4.243a5.369 5.369 0 0 1-4.267-2.122L43.41 33.83l-2.72 2.165a7.518 7.518 0 0 1-4.664 1.628h-6.294v4.243a9.507 9.507 0 0 0 2.133 6.007zm4.267 5.212v1.513a3.192 3.192 0 0 0 3.2 3.183c1.768 0 3.2-1.425 3.2-3.183v-1.513c-1.04.297-2.117.45-3.2.452a11.767 11.767 0 0 1-3.2-.452zm22.4 15.062a9.505 9.505 0 0 0-6.034-8.866l-8.068-3.21a5.285 5.285 0 0 1-3.65 3.63c-2.815.796-5.746-.83-6.545-3.63l-8.068 3.21a9.505 9.505 0 0 0-6.035 8.866v8.73h6.4v-11.67h2.134v11.67h21.333v-11.67h2.134v11.67h6.4z"/></g></g></svg>