<svg xmlns="http://www.w3.org/2000/svg" width="100" height="100" viewBox="0 0 100 100"><g><g><path fill="#f4c800" d="M50 100C22.386 100 0 77.614 0 50S22.386 0 50 0s50 22.386 50 50-22.386 50-50 50zm0-98C23.49 2 2 23.49 2 50s21.49 48 48 48 48-21.49 48-48S76.51 2 50 2zm-8.188 17.24a.945.945 0 0 1 0 1.89H35.66a2.297 2.297 0 0 0-2.296 2.296.945.945 0 1 1-1.89 0 4.19 4.19 0 0 1 4.185-4.186zm5.662 0a.945.945 0 0 1 0 1.89H45.8a.945.945 0 1 1 0-1.89zm-6.135-2.295c0-.522.423-.945.945-.945h5.19a.945.945 0 1 1 0 1.89h-5.19a.945.945 0 0 1-.945-.945zm-13.104 6.48A7.434 7.434 0 0 1 35.66 16h2.495a.945.945 0 1 1 0 1.89H35.66a5.542 5.542 0 0 0-5.535 5.536v.002a.945.945 0 0 1-1.89-.002zm34.862-4.185a.945.945 0 0 1 0 1.89h-2.85a2.297 2.297 0 0 0-2.296 2.296.945.945 0 1 1-1.89 0 4.19 4.19 0 0 1 4.186-4.186zm3.038.944c0-.521.423-.944.945-.944h4.98a.945.945 0 0 1 0 1.89H67.08a.944.944 0 0 1-.944-.944v-.002zm3.678-3.24c0-.521.424-.944.946-.944h1.302a.945.945 0 1 1 0 1.89h-1.302a.945.945 0 0 1-.946-.945zm-16.048 7.427a.945.945 0 0 1-.945-.945A7.434 7.434 0 0 1 60.247 16h5.313a.945.945 0 1 1 0 1.89h-5.313a5.541 5.541 0 0 0-5.536 5.536.945.945 0 0 1-.945.945h-.001zm21.753 23.89v3.241a.945.945 0 1 1-1.89 0v-3.24a.945.945 0 1 1 1.89 0zm5.537 26.608c.522 0 .945.423.944.945v3.242a.945.945 0 0 1-.945.944h-62.11a.945.945 0 0 1-.944-.946v-3.241c0-.522.424-.945.945-.944h2.34l.346-7.202c.024-.503.44-.9.944-.9h.718l1.725-36.162a.944.944 0 0 1-.564-.865V26.5c0-.522.423-.945.945-.945h10.802c.522 0 .945.423.945.945v3.24a.943.943 0 0 1-.558.86l.655 13.816 11.77-1.413.588-12.398a.944.944 0 0 1-.561-.865V26.5c0-.522.423-.945.945-.945h10.802c.522 0 .945.423.945.945v3.24c0 .373-.22.71-.56.862l.52 10.875 19.25-2.313a.945.945 0 0 1 .225 1.876l-2.408.29v33.539h2.296zm-4.186 0V41.558L31.745 46.98v27.888h21.62V65.01c0-.522.423-.944.945-.944h6.48c.523 0 .946.423.946.945v9.857h1.458V65.01c0-.522.424-.944.945-.944h6.481c.522 0 .946.423.946.945v9.857zm-7.194-8.911h-4.59v8.91h4.59zm-9.83 0h-4.59v8.91h4.59zm-8.91-37.163h8.91v-1.35h-8.91zm-.017 13.977l8.892-1.069-.525-11.017h-7.79zM26.344 28.795h8.912v-1.35h-8.908zm-1.158 37.972h4.669v-19.56l-2.184.263a.945.945 0 0 1-.226-1.877l7.915-.951-.66-13.956h-7.79zm-2.009 8.102h6.678v-6.211h-6.38zm56.932 1.89H19.89v1.35H80.11zM48.081 60.917a.945.945 0 1 1 0 1.89H37.28a.945.945 0 0 1 0-1.89zm0-6.481a.945.945 0 1 1 0 1.89H37.28a.945.945 0 0 1 0-1.89zm0 3.24a.945.945 0 0 1 0 1.89H37.28a.945.945 0 1 1 0-1.89zm12.033-.675v3.24a.945.945 0 0 1-.945.946h-3.241a.945.945 0 0 1-.944-.945V57c0-.522.423-.944.945-.944h3.24c.522 0 .945.423.945.945zm-1.89.945h-1.35v1.35h1.35zm11.721-.945v3.24a.945.945 0 0 1-.945.946H65.76a.945.945 0 0 1-.944-.945V57c0-.522.423-.944.945-.944H69c.522 0 .945.423.945.945zm-1.89.945h-1.35v1.35h1.35z"/></g></g></svg>