<svg xmlns="http://www.w3.org/2000/svg" width="100" height="100" viewBox="0 0 100 100"><g><g><path fill="#f3c800" d="M50 100C22.386 100 0 77.614 0 50S22.386 0 50 0s50 22.386 50 50-22.386 50-50 50zm0-98C23.49 2 2 23.49 2 50s21.49 48 48 48 48-21.49 48-48S76.51 2 50 2zm27.035 81h-4.16a.966.966 0 0 1-.964-.967V77.27h-8.895a.966.966 0 0 1 0-1.934h8.895v-2.233H28.089v2.233h30.424a.966.966 0 0 1 0 1.934H28.089v4.763a.966.966 0 0 1-.965.967h-4.16a.966.966 0 0 1-.964-.967V32.164a.966.966 0 1 1 1.93 0v43.172h2.229V18.933H23.93v8.72a.966.966 0 1 1-1.93 0v-9.686c0-.535.432-.967.965-.967h4.159c.533 0 .965.432.965.967V29.5h2.23V17.967c0-.535.431-.967.964-.967h37.434c.533 0 .965.432.965.967V29.5h2.229V17.967c0-.535.432-.967.965-.967h4.159c.532 0 .965.432.965.967v29.428a.966.966 0 1 1-1.93 0V18.933H73.84v56.403h2.228v-23.43a.966.966 0 1 1 1.93 0L78 82.033a.966.966 0 0 1-.965.967zm-50.876-5.73h-2.23v3.796h2.23zm31.045-6.1H67.75V60.602h-2.229v3.2a.966.966 0 0 1-.965.967h-4.159a.966.966 0 0 1-.965-.966v-3.2h-2.23zm6.388-8.334v-2.234h-2.229v2.234zM44.726 71.17h10.548V60.602h-2.23v3.2a.966.966 0 0 1-.964.967h-4.16a.966.966 0 0 1-.965-.966v-3.2h-2.23zm6.389-8.334v-2.234h-2.23v2.234zM32.248 71.17h10.548V60.602h-2.23v3.2a.966.966 0 0 1-.964.967h-4.16a.966.966 0 0 1-.965-.966v-3.2h-2.229zm6.389-8.334v-2.234h-2.23v2.234zm0-43.903h-2.23v2.233h2.23zm4.159 0h-2.23v3.2a.966.966 0 0 1-.964.967h-4.16a.966.966 0 0 1-.965-.966v-3.2h-2.229V29.5h10.548zm8.319 0h-2.23v2.233h2.23zm4.159 0h-2.23v3.2a.966.966 0 0 1-.964.967h-4.16a.966.966 0 0 1-.965-.966v-3.2h-2.23V29.5h10.549zm8.318 0h-2.229v2.233h2.23zm4.16 0h-2.23v3.2a.966.966 0 0 1-.965.967h-4.159a.966.966 0 0 1-.965-.966v-3.2h-2.23V29.5h10.548zm4.159 12.501H28.089v2.233H71.91zm0 4.167H28.089v14.734h3.27V38.801c0-.534.431-.967.964-.967h12.478c.533 0 .965.433.965.967v11.534h8.468V38.801c0-.534.432-.967.965-.967h12.478c.533 0 .965.433.965.967v11.534h3.269zm-31.27 8.334h-4.159a.966.966 0 0 1-.965-.967v-3.2h-2.229v10.567h10.548V39.768h-2.23v3.2a.966.966 0 0 1-.964.967zm-.964-1.934v-2.233h-2.23V42zm23.84 1.934h-4.159a.967.967 0 0 1-.965-.967v-3.2h-2.23v10.567h10.549V39.768h-2.23v3.2a.966.966 0 0 1-.965.967zm-.965-1.934v-2.233h-2.229V42zm9.359 10.268H28.089v2.233H71.91zm0 4.167H28.089V71.17h2.23V59.635c0-.533.431-.966.964-.966h37.433c.534 0 .966.433.966.966V71.17h2.229zM76.07 77.27h-2.23v3.796h2.23z"/></g></g></svg>