<svg xmlns="http://www.w3.org/2000/svg" width="100" height="100" viewBox="0 0 100 100"><g><g><path fill="#f4c800" d="M84.465 58.103l-19.04 13.072a1.248 1.248 0 0 1-.15.088 14.555 14.555 0 0 1-9.057 1.28l-11.01-2.028a.927.927 0 0 1-.077-.017 2.837 2.837 0 0 0-2.066.263l-5.137 3.247 1.646 5.401A1.233 1.233 0 0 1 38.396 81H25.172a1.233 1.233 0 0 1-1.223-1.081l-2.939-24.1a1.233 1.233 0 0 1 1.222-1.38h8.818c.546 0 1.019.35 1.178.871l.912 2.995a5.955 5.955 0 0 0 1.845-1.113l1.823-1.623c.02-.018.047-.04.075-.061a13.306 13.306 0 0 1 13.912-1.36l.755.364a7.565 7.565 0 0 0 3.254.746h5.385l4.034-2.194a6.243 6.243 0 0 1 6.904.471l.559-.3c1.765-.894 4.11-.381 5.585 1.184l.037-.02a5.626 5.626 0 0 1 7.516 2.055 1.233 1.233 0 0 1-.358 1.65zm-47.73 20.434L30.136 56.9h-6.515l2.638 21.637zm-7.75-3.574a2.014 2.014 0 0 1 2.006-2.006c1.104.001 2.001.9 2.001 2.003a2.006 2.006 0 0 1-2.004 2.004 2.005 2.005 0 0 1-2.003-2.001zm36.456-19.76a.363.363 0 0 1-.025.014l-.008.004-.884.48c.46.177.898.406 1.311.683l2.734-1.472a3.765 3.765 0 0 0-3.128.29zm7.364.225L67.657 58.2c.232.341.43.703.594 1.082l.019-.01 6.664-3.595c-.623-.393-1.437-.594-2.13-.25zm5.672 1.136l-9.05 4.88-.63.333.003.153c0 .68-.553 1.232-1.232 1.232l-.056-.001-6.246-.283c-1.8-.082-3.617.003-5.402.25a1.237 1.237 0 0 1-1.378-1.04 1.233 1.233 0 0 1 1.036-1.4 32.32 32.32 0 0 1 5.856-.27l4.754.215a4.228 4.228 0 0 0-4.008-2.916h-7.322a10.056 10.056 0 0 1-4.326-.99l-.756-.366a10.866 10.866 0 0 0-11.315 1.079l-1.785 1.59a8.44 8.44 0 0 1-2.762 1.634l3.324 10.901 4.596-2.905c.018-.012.038-.023.057-.034a5.285 5.285 0 0 1 3.855-.527l10.969 2.02c2.544.455 5.118.1 7.445-1.026L81.94 56.85a3.181 3.181 0 0 0-3.462-.285zm-.852-9.405h-13.34v1.474c0 .68-.552 1.231-1.231 1.231H42.967a1.233 1.233 0 0 1-1.232-1.231v-1.474H28.373a1.233 1.233 0 0 1-1.231-1.23V40.6c0-1.72.662-3.347 1.863-4.579a6.527 6.527 0 0 1 4.53-1.978c.396-.008.783.177 1.022.498a3.357 3.357 0 0 0 5.295.13c.204-.249.547-.665 1.193-.617a6.535 6.535 0 0 1 2.685.767l.089-.094a7.239 7.239 0 0 1 5.05-2.202c.4-.014.783.176 1.021.5a4.014 4.014 0 0 0 6.326.154c.22-.268.552-.67 1.181-.643a7.36 7.36 0 0 1 4.883 2.278 6.508 6.508 0 0 1 2.927-.771c.4-.01.781.176 1.02.499a3.36 3.36 0 0 0 5.296.13c.205-.251.544-.666 1.192-.618 3.44.22 6.14 3.095 6.142 6.546v5.328c0 .68-.553 1.231-1.232 1.231zM41.443 36.585a5.827 5.827 0 0 1-8.403-.026 4.137 4.137 0 0 0-3.436 4.044v4.094h12.131v-4.855a7.328 7.328 0 0 1 .622-2.955 4.04 4.04 0 0 0-.914-.302zm20.38 3.257a4.884 4.884 0 0 0-3.985-4.778 6.481 6.481 0 0 1-9.474-.028 4.89 4.89 0 0 0-4.166 4.808v7.558h17.625zm14.571.758a4.077 4.077 0 0 0-3.28-4.015 5.782 5.782 0 0 1-4.556 1.768 5.779 5.779 0 0 1-3.85-1.797 3.984 3.984 0 0 0-1.051.322c.412.93.629 1.946.628 2.964v4.855h12.109zm-7.56-5.871a5.973 5.973 0 0 1-5.967-5.967v-2.367a5.973 5.973 0 0 1 5.967-5.967 5.973 5.973 0 0 1 5.967 5.967v2.367a5.973 5.973 0 0 1-5.967 5.967zm3.504-8.334c0-.938-.365-1.818-1.027-2.48a3.48 3.48 0 0 0-2.477-1.025 3.508 3.508 0 0 0-3.504 3.504v2.37a3.48 3.48 0 0 0 1.027 2.477 3.48 3.48 0 0 0 2.477 1.026c.937 0 1.817-.365 2.478-1.027a3.48 3.48 0 0 0 1.026-2.478zm-19.297 6.534h-.032a6.598 6.598 0 0 1-4.673-1.923 6.597 6.597 0 0 1-1.967-4.687v-2.707c.017-3.63 2.982-6.595 6.61-6.612h.032c1.762 0 3.42.682 4.673 1.923a6.598 6.598 0 0 1 1.967 4.687v2.709c-.017 3.628-2.982 6.593-6.61 6.61zm4.148-9.317a4.193 4.193 0 0 0-4.156-4.154 4.127 4.127 0 0 0-2.962 1.208 4.15 4.15 0 0 0-1.24 2.948v2.702a4.193 4.193 0 0 0 4.156 4.155h.024a4.15 4.15 0 0 0 2.938-1.208 4.15 4.15 0 0 0 1.24-2.948zM37.164 34.729a5.973 5.973 0 0 1-5.966-5.967v-2.367a5.973 5.973 0 0 1 5.966-5.967 5.973 5.973 0 0 1 5.967 5.967v2.367a5.973 5.973 0 0 1-5.967 5.967zm3.504-5.967v-2.367c0-.938-.365-1.818-1.026-2.48a3.481 3.481 0 0 0-2.478-1.025 3.508 3.508 0 0 0-3.504 3.504v2.37a3.48 3.48 0 0 0 1.027 2.477 3.48 3.48 0 0 0 2.477 1.026c.937 0 1.817-.365 2.478-1.027a3.48 3.48 0 0 0 1.026-2.478zM50 100C22.386 100 0 77.614 0 50S22.386 0 50 0s50 22.386 50 50-22.386 50-50 50zm0-98C23.49 2 2 23.49 2 50s21.49 48 48 48 48-21.49 48-48S76.51 2 50 2z"/></g></g></svg>