<svg xmlns="http://www.w3.org/2000/svg" width="100" height="100" viewBox="0 0 100 100"><g><g><path fill="#f4c800" d="M50 100C22.386 100 0 77.614 0 50 0 22.385 22.386 0 50 0s50 22.385 50 50c0 27.614-22.386 50-50 50zm0-98C23.49 2 2 23.49 2 50s21.49 48 48 48 48-21.49 48-48S76.51 2 50 2zM14 35.682v-7.56a2.624 2.624 0 0 1 2.625-2.616h41.417a2.624 2.624 0 0 1 2.625 2.617v2.035h2.72c.877-.001 1.697.436 2.183 1.165l3.905 5.838a5.565 5.565 0 0 1 3.945 2.249l2.19 3.001-1.887 1.368-2.19-3a3.222 3.222 0 0 0-2.594-1.318h-8.272v10.466h17.542l-3.32-4.549 1.888-1.368 4.481 6.143A4.078 4.078 0 0 1 84 53.997v14.246a2.624 2.624 0 0 1-2.625 2.616h-2.042c0 4.496-3.656 8.14-8.166 8.14S63 75.356 63 70.86H35c0 4.496-3.656 8.14-8.167 8.14-4.51 0-8.166-3.644-8.166-8.14h-2.042A2.624 2.624 0 0 1 14 68.243v-32.27h2.333v22.095h42V28.123c0-.161-.13-.291-.291-.291H16.625a.291.291 0 0 0-.292.29v7.56zm52.653 1.598l-3.024-4.522a.292.292 0 0 0-.243-.13h-2.72v4.652zm15.014 16.863a1.75 1.75 0 0 0-1.75-1.745h-1.75v5.233a1.749 1.749 0 0 0 1.75 1.745h1.75zm-10.5 22.676c3.221 0 5.833-2.603 5.833-5.814s-2.612-5.815-5.833-5.815c-3.222 0-5.834 2.604-5.834 5.815.004 3.21 2.613 5.81 5.834 5.814zm-7.828-8.14c1.29-4.309 5.84-6.76 10.162-5.475a8.155 8.155 0 0 1 5.493 5.475h2.38c.162 0 .293-.13.293-.29v-6.687h-1.75a4.081 4.081 0 0 1-4.084-4.07v-5.234H60.667V68.68zm-36.506 8.14c3.222 0 5.834-2.603 5.834-5.814s-2.612-5.815-5.834-5.815c-3.221 0-5.833 2.604-5.833 5.815.004 3.21 2.613 5.81 5.833 5.814zm-10.5-16.28v7.85c0 .16.13.29.292.29h2.381c1.29-4.309 5.84-6.76 10.162-5.475a8.155 8.155 0 0 1 5.492 5.475h23.673v-8.14zm51.334-3.489H63v-2.326h4.667zM36.844 30.395c.302-.135.647-.135.95 0l10.485 4.66c.482.214.76.724.678 1.243l-.875 5.531a19.026 19.026 0 0 1-7.538 11.964l-2.543 1.868c-.41.3-.966.302-1.378.004L34.2 53.91a19.021 19.021 0 0 1-7.631-12.007l-.005-.027-.883-5.576c-.082-.52.195-1.03.677-1.244zm-7.978 11.104a16.708 16.708 0 0 0 6.706 10.529l1.732 1.255 1.856-1.362a16.711 16.711 0 0 0 6.62-10.467l.732-4.638-9.193-4.085-9.194 4.086zm12.308-.39l1.65 1.645-3.5 3.489a1.17 1.17 0 0 1-1.65 0l-7-6.978 1.65-1.644 6.175 6.155zm29.993 26.407c1.933 0 3.5 1.562 3.5 3.489a3.494 3.494 0 0 1-3.5 3.488 3.494 3.494 0 0 1-3.5-3.488 3.498 3.498 0 0 1 3.5-3.489zm0 4.652c.644 0 1.166-.52 1.166-1.163 0-.642-.522-1.163-1.166-1.163-.645 0-1.167.52-1.167 1.163 0 .642.523 1.162 1.167 1.163zm-44.334-4.652c1.933 0 3.5 1.562 3.5 3.489a3.494 3.494 0 0 1-3.5 3.488 3.494 3.494 0 0 1-3.5-3.488 3.498 3.498 0 0 1 3.5-3.489zm0 4.652c.645 0 1.167-.52 1.167-1.163 0-.642-.522-1.163-1.167-1.163-.644 0-1.166.52-1.166 1.163 0 .642.522 1.162 1.166 1.163zM84 27.628h-9.333v-2.325H84zm-11.667 0H70v-2.325h2.333zM48 20.327H29.333V18H48zm-21 0h-2.333V18H27zm34.833 62.493h-21v-2.326h21zm-23.333 0h-2.333v-2.326H38.5z"/></g></g></svg>