<svg xmlns="http://www.w3.org/2000/svg" width="100" height="100" viewBox="0 0 100 100"><g><g><path fill="#f4c800" d="M81.852 68.004c1.14 8.168-4.558 15.713-12.727 16.852-8.169 1.14-15.714-4.558-16.854-12.726-1.139-8.168 4.56-15.712 12.728-16.852l-5.916-7.53a14.831 14.831 0 0 1-18.254-.073l-8.21 8.21a10.656 10.656 0 0 1 6.667 8.845c.584 5.856-3.69 11.077-9.547 11.66v4.32h8.727a3.199 3.199 0 1 1 0 2.132h-9.793a1.066 1.066 0 0 1-1.067-1.066V76.39c-.176-.017-.353-.04-.528-.065-5.82-.872-9.832-6.297-8.96-12.118.872-5.82 6.297-9.83 12.118-8.959l9.002-9a14.86 14.86 0 0 1-4.113-9.253h-9.651c-.421 0-.803-.248-.975-.632l-4.025-9.057a3.188 3.188 0 1 1 2.208-.283l3.486 7.84h8.957a14.894 14.894 0 0 1 4.13-9.298c5.708-5.926 15.138-6.103 21.064-.397l1.722-1.721c.2-.2.471-.313.754-.313h12.992a3.198 3.198 0 1 1 0 2.133h-12.55l-1.488 1.487a14.83 14.83 0 0 1 3.124 8.109h11.784c.589 0 1.066.477 1.066 1.066v2.239a5.331 5.331 0 1 1-2.132 0v-1.173H64.873a14.868 14.868 0 0 1-4.189 9.34l6.922 8.81a14.932 14.932 0 0 1 14.246 12.86zm-5.195-27.81a3.199 3.199 0 1 0-.001 6.397 3.199 3.199 0 0 0 0-6.397zM77.723 24.2a1.066 1.066 0 1 0 2.133 0 1.066 1.066 0 0 0-2.133 0zm-55.448 0a1.066 1.066 0 1 0-2.133 0 1.066 1.066 0 0 0 2.133 0zm18.127 57.575a1.066 1.066 0 1 0 2.133 0 1.066 1.066 0 0 0-2.133 0zm-7.464-10.662a4.265 4.265 0 1 0-8.53 0v2.045a8.459 8.459 0 0 0 8.53 0zm-4.265-6.397a2.133 2.133 0 1 0 0-4.266 2.133 2.133 0 0 0 0 4.266zm-5.643-5.35a8.53 8.53 0 0 0-.755 12.039v-.292a6.397 6.397 0 0 1 3.312-5.601 4.264 4.264 0 0 1 6.03-6.03 4.265 4.265 0 0 1 .14 6.03 6.397 6.397 0 0 1 3.314 5.6v.293a8.484 8.484 0 0 0 2.132-5.623 8.531 8.531 0 0 0-14.173-6.416zm34.433-13.07v-2.585a3.519 3.519 0 0 0-3.519-3.518h-2.37l1.546 3.868c.159.396.065.849-.237 1.15l-2.132 2.133a1.066 1.066 0 0 1-1.508 0l-2.133-2.133a1.066 1.066 0 0 1-.236-1.15l1.547-3.868h-2.367a3.519 3.519 0 0 0-3.52 3.518v2.585a12.706 12.706 0 0 0 14.93 0zm-5.848-17.68l3.552 2.132c-.476-2.985-2.142-4.416-5.168-4.416-3.305 0-4.987 1.696-5.273 5.27 1.876-.18 4.789-.792 5.328-2.41a1.067 1.067 0 0 1 1.56-.577zm-6.8 5.124A6.718 6.718 0 0 0 50 38.061c1.637 0 4.854-2.146 5.281-4.756l-3.81-2.287c-1.533 2.02-4.829 2.573-6.654 2.723zM50 41.998l-.88 2.204.88.881.88-.881zm9.597 1.714v.648a12.794 12.794 0 0 0 0-16.925c-4.675-5.3-12.76-5.807-18.06-1.133-5.3 4.674-5.808 12.759-1.134 18.058v-.648a5.633 5.633 0 0 1 4.945-5.599 7.401 7.401 0 0 1-2.812-5.383c0-7.05 4.06-8.53 7.464-8.53 3.405 0 7.464 1.48 7.464 8.53a7.402 7.402 0 0 1-2.812 5.38 5.633 5.633 0 0 1 4.945 5.602zm14.928 34.119a3.519 3.519 0 0 0-3.519-3.519h-2.37l1.546 3.869c.159.396.065.848-.237 1.15l-2.132 2.132a1.067 1.067 0 0 1-1.508 0l-2.133-2.132a1.066 1.066 0 0 1-.236-1.15l1.547-3.869h-2.367a3.519 3.519 0 0 0-3.52 3.519v2.584a12.707 12.707 0 0 0 14.93 0zM61.877 67.86a6.718 6.718 0 0 0 5.183 4.32c1.637 0 4.854-2.146 5.281-4.758l-3.81-2.287v.002c-1.533 2.019-4.829 2.572-6.654 2.723zm5.238-4.548a1.066 1.066 0 0 1 1.56-.577l3.553 2.133c-.476-2.985-2.142-4.416-5.168-4.416-3.306 0-4.987 1.696-5.273 5.269 1.876-.178 4.789-.791 5.328-2.409zm-.055 12.804l-.88 2.204.88.882.88-.882zm12.796-6.069a12.786 12.786 0 0 0-3.184-8.454c-4.664-5.304-12.744-5.823-18.048-1.16-5.305 4.662-5.824 12.742-1.16 18.046v-.648a5.633 5.633 0 0 1 4.944-5.6 7.4 7.4 0 0 1-2.812-5.382c0-7.05 4.06-8.53 7.464-8.53 3.405 0 7.464 1.48 7.464 8.53a7.402 7.402 0 0 1-2.812 5.38 5.633 5.633 0 0 1 4.945 5.602v.651a12.727 12.727 0 0 0 3.199-8.435zM50 100C22.386 100 0 77.614 0 50S22.386 0 50 0s50 22.386 50 50-22.386 50-50 50zm0-98C23.49 2 2 23.49 2 50s21.49 48 48 48 48-21.49 48-48S76.51 2 50 2z"/></g></g></svg>