<svg xmlns="http://www.w3.org/2000/svg" width="100" height="100" viewBox="0 0 100 100"><g><g><path fill="#f4c800" d="M50 100C22.386 100 0 77.614 0 50S22.386 0 50 0s50 22.386 50 50-22.386 50-50 50zm0-98C23.49 2 2 23.49 2 50s21.49 48 48 48 48-21.49 48-48S76.51 2 50 2zM33.452 62.744a4.53 4.53 0 0 1-1.635 3.488l-5.591 4.66-5.592-4.66A4.533 4.533 0 0 1 19 62.745a4.57 4.57 0 0 1 1.33-3.212 4.52 4.52 0 0 1 3.22-1.339h.19c.898 0 1.757.26 2.49.743a4.479 4.479 0 0 1 2.48-.743h.191c1.212 0 2.353.472 3.21 1.329a4.582 4.582 0 0 1 1.34 3.222zm-2.956 1.902c.566-.472.891-1.165.891-1.902a2.491 2.491 0 0 0-2.485-2.486h-.19c-.661 0-1.284.258-1.751.726l-.77.768-.731-.803a2.447 2.447 0 0 0-1.719-.69h-.19c-.662 0-1.284.257-1.753.725a2.5 2.5 0 0 0-.734 1.76c0 .737.326 1.43.892 1.903l4.27 3.557zm25.665-16.775a1.032 1.032 0 1 1 0 2.064 1.032 1.032 0 0 1 0-2.064zm-10.322 0a1.032 1.032 0 1 1 0 2.064 1.032 1.032 0 0 1 0-2.064zm10.417 5.984a5.794 5.794 0 0 1-5.21 3.222 5.792 5.792 0 0 1-5.21-3.221l-.156-.313 1.846-.924.158.313a3.738 3.738 0 0 0 3.363 2.08 3.74 3.74 0 0 0 3.364-2.08l.155-.313 1.846.923zm15.39-.823c6.26 0 11.354 5.094 11.354 11.355 0 5.577-4.127 10.279-9.483 11.186a16.544 16.544 0 0 1 1.225 6.238V84H27.258v-2.189a16.452 16.452 0 0 1 12.734-16.076l4.965-1.169.53-2.655a11.442 11.442 0 0 1-5.636-7.847h-.206a5.167 5.167 0 0 1-5.161-5.16c0-.883.243-1.702.635-2.429l-.136-.54-.877-3.226H21.064A2.067 2.067 0 0 1 19 40.645v-18.58c0-1.14.926-2.065 2.064-2.065h22.71c1.139 0 2.065.926 2.065 2.064v6.949l2.975-1.068a12.23 12.23 0 0 1 4.142-.72c3.7 0 7.23 1.71 9.518 4.573-.07-.488-.12-.978-.12-1.475C62.355 24.63 66.987 20 72.678 20 78.37 20 83 24.63 83 30.323c0 5.691-4.63 10.322-10.323 10.322-1.458 0-2.875-.321-4.185-.905-.272 2.903-1.45 6.134-1.508 6.288l-.108.326a5.1 5.1 0 0 1 .7 2.55 5.167 5.167 0 0 1-5.16 5.16h-.266a11.442 11.442 0 0 1-5.637 7.847l.53 2.655 3.3.777c-.026-.318-.053-.636-.053-.956 0-6.26 5.094-11.355 11.355-11.355zM56.332 66.52l-3.291 1.974 5.525 3.158 2.729-3.964zm-5.345 3.192l-2.729 1.56 1.294 2.405h2.894l1.294-2.406-2.729-1.559-.012.008zm-6.382 3.647l2.547 3.7.67-2.236-1.357-2.527zm5.905 8.576h.978l1.856-2.696-1.049-3.497h-2.593l-1.048 3.497zm6.882-8.578l-1.86-1.062-1.357 2.527.671 2.236zM62.415 52a3.1 3.1 0 0 0 3.096-3.097 3.1 3.1 0 0 0-3.096-3.097h-.06v6.129c0 .023-.003.043-.003.065zm7.676-18.58h5.171c.308-.957.512-1.997.512-3.098 0-1.102-.203-2.141-.51-3.096h-5.171a10.098 10.098 0 0 0-.512 3.097c0 1.102.203 2.141.51 3.096zm4.303-8.259a15.47 15.47 0 0 0-1.715-2.582 15.681 15.681 0 0 0-1.712 2.582zm-3.433 10.323a15.427 15.427 0 0 0 1.714 2.582 15.707 15.707 0 0 0 1.713-2.582zm-.774 2.71a16.744 16.744 0 0 1-1.52-2.71H67.52c.398.556.692 1.184.858 1.866a8.211 8.211 0 0 0 1.809.843zm4.98.002a8.282 8.282 0 0 0 3.946-2.712h-2.425a16.703 16.703 0 0 1-1.522 2.712zm5.768-7.873c0-1.096-.218-2.14-.608-3.097h-2.905c.257.965.417 2.002.417 3.097 0 1.094-.16 2.131-.417 3.096h2.905a8.2 8.2 0 0 0 .608-3.096zm-1.822-5.162a8.28 8.28 0 0 0-3.947-2.712c.515.745 1.057 1.66 1.522 2.712zM70.19 22.45a8.28 8.28 0 0 0-3.948 2.712h2.426a16.609 16.609 0 0 1 1.522-2.712zm-5.77 7.873c0 1.068.218 2.105.625 3.097h2.89a12.011 12.011 0 0 1-.418-3.096c0-1.095.16-2.132.417-3.097h-2.906a8.202 8.202 0 0 0-.608 3.097zm-24.786 3.11c-2.462.883-4.117 3.209-4.117 5.789 0 .502.063 1.004.187 1.49l1.05 3.92c.826-.56 1.82-.89 2.892-.89h.915c3.093-.638 5.099-1.886 7.037-3.095 2.439-1.524 4.96-3.098 9.301-3.098 3.01 0 5.457 2.46 5.457 5.484v.71h.06c1.06 0 2.048.323 2.868.875.414-1.27 1.2-3.948 1.2-5.991 0-1.88-1.557-3.41-3.472-3.41H62.5l-1.483-1.953c-1.891-2.487-4.904-3.973-8.06-3.973-1.179 0-2.338.201-3.446.599zm-10.31 1.02h-2.065v2.064h2.065zm8.258-8.258h-2.065v7.642a8.287 8.287 0 0 1 2.065-1.703zm-4.13 4.129h-2.064v6.193h2.065zM21.065 40.645h12.529a8.203 8.203 0 0 1-.141-1.424c0-.217.034-.427.05-.64h-8.308v-6.194h4.129v-4.13h4.129V24.13h6.193v7.105l4.13-1.481v-7.689h-22.71zm18.581 11.356h.003c0-.023-.003-.043-.003-.065v-6.13a3.1 3.1 0 0 0-3.097 3.097A3.1 3.1 0 0 0 39.645 52zm2.065-.065c0 5.158 4.168 9.354 9.29 9.354 5.122 0 9.29-4.196 9.29-9.354v-8.903c0-1.886-1.521-3.42-3.392-3.42-3.748 0-5.814 1.29-8.208 2.785-1.851 1.155-3.928 2.451-6.98 3.203zm5.712 10.83l-.428 2.142L51 67.312l4.006-2.404-.428-2.143a11.25 11.25 0 0 1-3.578.59c-1.251 0-2.452-.213-3.578-.59zm-6.718 4.922l2.728 3.964 5.526-3.158-3.29-1.974zM29.323 81.935h18.68L38.63 68.318a14.379 14.379 0 0 0-9.307 13.493zm43.354-.124a14.38 14.38 0 0 0-9.306-13.493l-9.374 13.617h18.68zm-.098-8.189c4.67-.473 8.356-4.466 8.356-9.235 0-5.123-4.168-9.29-9.29-9.29-5.122 0-9.29 4.167-9.29 9.29 0 .499.053.993.132 1.482a16.466 16.466 0 0 1 8.126 5.012v-1.523a3.093 3.093 0 0 1-2.065-2.907V65.42h2.065v1.032c0 .57.463 1.033 1.032 1.033h1.032V66.45c0-.57-.463-1.032-1.032-1.032a3.1 3.1 0 0 1-3.097-3.097v-3.096h2.065V57.16h2.064v2.254a3.093 3.093 0 0 1 2.065 2.907v1.033h-2.065v-1.033c0-.57-.463-1.032-1.032-1.032h-1.032v1.032c0 .57.463 1.033 1.032 1.033a3.1 3.1 0 0 1 3.097 3.096v3.097h-2.065v2.065h-1.442c.498.633.945 1.307 1.344 2.01z"/></g></g></svg>