<svg xmlns="http://www.w3.org/2000/svg" width="1027" height="157" viewBox="0 0 1027 157"><g><g><path fill="#d59704" d="M0 0h213v76H0l20-37.95z"/></g><g><g><path fill="#fff" d="M107 0c22.091 0 40 17.908 40 40 0 22.091-17.909 40-40 40S67 62.091 67 40c0-22.092 17.909-40 40-40z"/></g><g><path fill="#d59704" d="M111 71.742v70.336a7.99 7.99 0 0 1 4 6.922 8 8 0 0 1-16 0 7.99 7.99 0 0 1 4-6.922V71.742C87.216 69.772 75 56.317 75 40c0-17.673 14.327-32 32-32 17.673 0 32 14.327 32 32 0 16.317-12.216 29.772-28 31.742zM107 16c-13.255 0-24 10.745-24 24 0 13.254 10.745 24 24 24s24-10.746 24-24c0-13.255-10.745-24-24-24z"/></g><g><path fill="#f4c800" d="M100.232 52.64h14.364v-3.96H109.7V27.006h-2.628l-8.208 6.624 1.98 2.7 3.204-2.196 1.728-2.124-.54 2.448v14.22h-5.004z"/></g></g><g><path fill="#ebab01" d="M213 0h200v76H213z"/></g><g><g><path fill="#fff" d="M313 0c22.091 0 40 17.908 40 40 0 22.091-17.909 40-40 40s-40-17.909-40-40c0-22.092 17.909-40 40-40z"/></g><g><path fill="#ebab01" d="M317 71.742v70.336a7.99 7.99 0 0 1 4 6.922 8 8 0 0 1-16 0 7.99 7.99 0 0 1 4-6.922V71.742c-15.784-1.97-28-15.425-28-31.742 0-17.673 14.327-32 32-32 17.673 0 32 14.327 32 32 0 16.317-12.216 29.772-28 31.742zM313 16c-13.255 0-24 10.745-24 24 0 13.254 10.745 24 24 24s24-10.746 24-24c0-13.255-10.745-24-24-24z"/></g><g><path fill="#f4c800" d="M319.156 30.697a5.816 5.816 0 0 0-1.476-2.07 6.365 6.365 0 0 0-2.232-1.26c-.864-.288-1.813-.432-2.844-.432-1.609 0-3.006.234-4.194.702a11.809 11.809 0 0 0-3.186 1.854l1.872 3.312c.551-.504 1.23-.918 2.034-1.242.803-.324 1.59-.486 2.358-.486 1.224 0 2.117.319 2.682.954.563.637.846 1.446.846 2.43 0 .817-.162 1.68-.486 2.592a17.856 17.856 0 0 1-1.314 2.826 31.253 31.253 0 0 1-1.872 2.898c-.697.96-1.41 1.89-2.142 2.79a71.03 71.03 0 0 1-2.178 2.556 82.148 82.148 0 0 1-1.944 2.106v2.412h15.156v-3.96h-6.912l-2.592.504v-.18l1.908-1.476a61.516 61.516 0 0 0 2.43-3.078 34.468 34.468 0 0 0 2.268-3.474 22.955 22.955 0 0 0 1.692-3.672c.443-1.247.666-2.484.666-3.708 0-1.103-.18-2.07-.54-2.898z"/></g></g><g><path fill="#f3c800" d="M413 0h200v76H413z"/></g><g><g><path fill="#fff" d="M513 0c22.091 0 40 17.908 40 40 0 22.091-17.909 40-40 40-22.092 0-40-17.909-40-40 0-22.092 17.908-40 40-40z"/></g><g><path fill="#f3c800" d="M517 71.742v70.336a7.99 7.99 0 0 1 4 6.922 8 8 0 0 1-16 0 7.99 7.99 0 0 1 4-6.922V71.742c-15.784-1.97-28-15.425-28-31.742 0-17.673 14.327-32 32-32 17.673 0 32 14.327 32 32 0 16.317-12.216 29.772-28 31.742zM513 16c-13.255 0-24 10.745-24 24 0 13.254 10.745 24 24 24s24-10.746 24-24c0-13.255-10.745-24-24-24z"/></g><g><path fill="#f4c800" d="M508.734 48.895a10.244 10.244 0 0 1-2.07-.756l-1.26 3.888c.695.36 1.607.636 2.736.828 1.127.192 2.22.288 3.276.288 1.271 0 2.46-.168 3.564-.504a8.115 8.115 0 0 0 2.898-1.548 7.235 7.235 0 0 0 1.944-2.592c.468-1.031.702-2.255.702-3.672 0-1.127-.169-2.124-.504-2.988-.337-.864-.787-1.59-1.35-2.178a5.765 5.765 0 0 0-1.98-1.35 8.045 8.045 0 0 0-2.394-.576l-1.512.216v-.18l1.584-.972 5.076-6.804V27.44h-13.752v3.96h6.048l2.844-.324-2.052 1.62-4.356 5.94v2.484h2.592c1.751 0 3.035.324 3.852.972.815.648 1.224 1.656 1.224 3.024 0 1.129-.39 2.088-1.17 2.88-.78.792-1.915 1.188-3.402 1.188-.936 0-1.782-.095-2.538-.288z"/></g></g><g><path fill="#ffdf00" d="M613 0h200v76H613z"/></g><g><g><path fill="#fff" d="M713 0c22.091 0 40 17.908 40 40 0 22.091-17.909 40-40 40s-40-17.909-40-40c0-22.092 17.909-40 40-40z"/></g><g><path fill="#ffdf00" d="M717 71.742v70.336a7.99 7.99 0 0 1 4 6.922 8 8 0 0 1-16 0 7.99 7.99 0 0 1 4-6.922V71.742c-15.784-1.97-28-15.425-28-31.742 0-17.673 14.327-32 32-32 17.673 0 32 14.327 32 32 0 16.317-12.216 29.772-28 31.742zM713 16c-13.255 0-24 10.745-24 24 0 13.254 10.745 24 24 24s24-10.746 24-24c0-13.255-10.745-24-24-24z"/></g><g><path fill="#f4c800" d="M722.504 45.62h-3.96v7.02h-4.356v-7.02H703.28v-2.665l11.412-15.696h3.852v14.616h3.96zm-8.316-9.253l.324-3.024h-.144l-1.224 2.592-3.744 4.86-1.8 1.368 2.304-.288h4.284z"/></g></g><g><path fill="#fff4a4" d="M813 0h194l20 37.914L1007 76H813z"/></g><g><g><path fill="#fff" d="M920 0c22.091 0 40 17.908 40 40 0 22.091-17.909 40-40 40s-40-17.909-40-40c0-22.092 17.909-40 40-40z"/></g><g><path fill="#fff4a4" d="M924 71.742v70.336a7.99 7.99 0 0 1 4 6.922 8 8 0 0 1-16 0 7.99 7.99 0 0 1 4-6.922V71.742c-15.784-1.97-28-15.425-28-31.742 0-17.673 14.327-32 32-32 17.673 0 32 14.327 32 32 0 16.317-12.216 29.772-28 31.742zM920 16c-13.255 0-24 10.745-24 24 0 13.254 10.745 24 24 24s24-10.746 24-24c0-13.255-10.745-24-24-24z"/></g><g><path fill="#f4c800" d="M915.122 48.805a8.927 8.927 0 0 1-1.818-.558l-1.26 3.888c.671.313 1.494.558 2.466.738.972.18 1.998.27 3.078.27 1.368 0 2.628-.18 3.78-.54 1.152-.36 2.153-.9 3.006-1.62.851-.72 1.517-1.62 1.998-2.7.48-1.08.72-2.327.72-3.744 0-1.2-.18-2.286-.54-3.258-.36-.972-.877-1.8-1.548-2.484a7.1 7.1 0 0 0-2.43-1.602c-.949-.383-2.01-.6-3.186-.648l-1.476.144v-4.86h8.352V27.44H913.88v13.176l2.844-.108c1.823 0 3.227.337 4.212 1.008.983.672 1.476 1.728 1.476 3.168 0 1.345-.42 2.4-1.26 3.168-.84.769-2.052 1.152-3.636 1.152-.936 0-1.735-.065-2.394-.198z"/></g></g></g></svg>