<svg xmlns="http://www.w3.org/2000/svg" width="100" height="100" viewBox="0 0 100 100"><g><g><path fill="#f4c800" d="M50 100C22.386 100 0 77.614 0 50S22.386 0 50 0s50 22.386 50 50-22.386 50-50 50zm0-98C23.49 2 2 23.49 2 50s21.49 48 48 48 48-21.49 48-48S76.51 2 50 2zm37 59.48L65.498 72.23a3.67 3.67 0 0 1-3.567 4.02 3.63 3.63 0 0 1-3.58 3.584 3.63 3.63 0 0 1-3.582 3.58A3.634 3.634 0 0 1 51.142 87h-.22a3.634 3.634 0 0 1-2.402-.907l-1.057-.934a3.76 3.76 0 0 1-2.093.647 3.723 3.723 0 0 1-3.711-3.594 3.716 3.716 0 0 1-3.581-3.58 3.716 3.716 0 0 1-3.58-3.581 3.716 3.716 0 0 1-3.584-3.6l-3.6-2.161-.285 1h-2.287L13 66.377V41.645h3.904l5.945 3.467 3.28-.82v-.573a8.379 8.379 0 0 1-3.58-6.848v-2.387c0-2.28.9-4.409 2.538-5.995a8.292 8.292 0 0 1 6.074-2.355c.049 0 .095.01.144.012l-1.281-3.055 6.315-6.315 3.726 2.425a20.15 20.15 0 0 1 4.467-1.853l.92-4.348h9.097l.92 4.347a20.19 20.19 0 0 1 4.467 1.853l3.726-2.425 6.32 6.319-1.303 3.052c.224-.011.447-.02.674-.014 4.466.136 8.099 4.016 8.099 8.652v2.087a8.382 8.382 0 0 1-3.582 6.85v.571l5.028 1.258c.505.127.973.337 1.423.585l3.997-2.103H87zM69.28 28.52a5.886 5.886 0 0 0-4.339 1.68 5.918 5.918 0 0 0-1.813 4.284v2.387a5.985 5.985 0 0 0 2.985 5.162l.596.344v3.78l-4.097 1.024a5.939 5.939 0 0 1 1.71 4.16v3.215l13.125-6.909-5.963-1.49-.005-3.777.597-.344a5.991 5.991 0 0 0 2.987-5.165v-2.087c0-3.358-2.594-6.169-5.783-6.264zm-15.71 25.35l7.338 2.098h.731l.295-.155V51.34a3.578 3.578 0 0 0-2.711-3.474l-6.836-1.708-.005-3.777.597-.345a5.991 5.991 0 0 0 2.988-5.165v-2.087c0-3.358-2.595-6.169-5.783-6.264a5.9 5.9 0 0 0-4.34 1.68 5.917 5.917 0 0 0-1.813 4.284v2.387a5.985 5.985 0 0 0 2.985 5.162l.596.344v3.78l-6.837 1.709a3.578 3.578 0 0 0-2.712 3.474v.354l.685-.152c2.52-.558 5.185-.44 7.648.349l5.403 1.726c.598.023 1.193.09 1.771.254zM39.258 34.785v2.087a8.382 8.382 0 0 1-3.582 6.85v.571l4.776 1.195 4.774-1.195v-.573a8.379 8.379 0 0 1-3.58-6.848v-2.387c0-2.28.9-4.409 2.537-5.997a8.292 8.292 0 0 1 6.073-2.355c4.466.136 8.099 4.016 8.099 8.652v2.087a8.382 8.382 0 0 1-3.582 6.85v.571l4.775 1.195 4.775-1.195v-.573a8.379 8.379 0 0 1-3.581-6.848v-2.387a8.3 8.3 0 0 1 .877-3.717c-2.258-4.284-6.75-7.025-11.62-7.025-4.914 0-9.426 2.778-11.667 7.121a8.798 8.798 0 0 1 .926 3.921zm-5.076-7.946a8.418 8.418 0 0 1 2.633 1.867c2.805-4.516 7.79-7.35 13.185-7.35 5.356 0 10.328 2.808 13.14 7.278.047-.049.09-.1.138-.148a8.343 8.343 0 0 1 2.52-1.675l1.353-3.17-3.808-3.81-3.356 2.185-.643-.394a17.829 17.829 0 0 0-5.168-2.144l-.734-.176-.828-3.914h-5.227l-.83 3.916-.735.176a17.813 17.813 0 0 0-5.168 2.143l-.642.394-3.356-2.184-3.813 3.813zm-8.38 19.998l6.295 3.672-.046 2.206-.096.338 3.722-.828v-.884c0-1.604.648-3.074 1.71-4.16l-4.096-1.022-.004-3.778.597-.344a5.991 5.991 0 0 0 2.987-5.165v-2.087c0-3.358-2.595-6.169-5.783-6.264a5.89 5.89 0 0 0-4.34 1.68 5.917 5.917 0 0 0-1.813 4.284v2.387a5.985 5.985 0 0 0 2.986 5.162l.595.344v3.78zm-10.415 17.82l5.123 1.707L24.84 49.04l-8.584-5.007h-.87zm9.842 3.247l4.48-15.683v-.341l-2.722-1.588-4.207 16.83 2.349.782zm9.4 4.774c.351 0 .696-.142.946-.391l2.098-2.099a1.34 1.34 0 0 0-1.893-1.893l-2.098 2.099a1.34 1.34 0 0 0 .946 2.285zm3.58 3.581c.352 0 .697-.142.946-.392l2.098-2.098a1.34 1.34 0 0 0-1.893-1.893l-2.097 2.098a1.34 1.34 0 0 0 .946 2.285zm3.58 3.58c.353 0 .698-.142.947-.391l2.098-2.098a1.34 1.34 0 0 0-1.893-1.893l-2.098 2.098a1.34 1.34 0 0 0 .947 2.284zm4.528 3.19l2.098-2.098a1.34 1.34 0 0 0-1.893-1.893l-2.098 2.098a1.34 1.34 0 0 0 1.893 1.893zm6.07.34c0-.371-.164-.72-.448-.956l-1.085-.904a3.71 3.71 0 0 1-.751 1.11l-.897.896.893.787c.227.201.518.312.822.312h.221c.687 0 1.245-.559 1.245-1.245zm10.742-10.78c0-.364-.155-.711-.425-.956L52.62 62.556a2.464 2.464 0 0 0-2.862-.276l-4.445 2.666c-.62.373-1.332.57-2.056.57a4.003 4.003 0 0 1-3.999-3.998v-.237c0-1.523.846-2.893 2.208-3.576l5.961-2.98-1.758-.562a12.296 12.296 0 0 0-6.404-.29l-8.058 1.792-3.214 11.248 3.667 2.2c.105-.14.209-.283.334-.408l2.098-2.098a3.75 3.75 0 0 1 2.634-1.091 3.72 3.72 0 0 1 3.711 3.594 3.716 3.716 0 0 1 3.58 3.58 3.716 3.716 0 0 1 3.581 3.581 3.712 3.712 0 0 1 3.205 2.086l2.664 2.22c.351.293.798.455 1.256.455.686 0 1.245-.558 1.245-1.245 0-.371-.164-.72-.448-.954l-6.285-5.238 1.529-1.835 6.483 5.402c.223.187.506.29.796.29h.26a1.246 1.246 0 0 0 .799-2.202l-6.285-5.237 1.529-1.834 6.472 5.393c.23.193.522.299.821.299h.207c.708 0 1.283-.575 1.283-1.283zm21.484-26.014L62.23 58.354l-1.816-.045-7.5-2.142a5.187 5.187 0 0 0-3.72.345l-6.658 3.329a1.6 1.6 0 0 0-.89 1.44v.237a1.612 1.612 0 0 0 2.436 1.382l4.446-2.666a4.806 4.806 0 0 1 5.689.55L64.3 69.86c.072.063.14.13.205.199l20.108-10.055z"/></g></g></svg>